<svg width="104" height="17" viewBox="0 0 104 17" fill="none" xmlns="http://www.w3.org/2000/svg">
<path d="M51.3688 0L53.2477 5.87336L59.3279 5.87336L54.4089 9.50329L56.2878 15.3766L51.3688 11.7467L46.4497 15.3766L48.3286 9.50329L43.4096 5.87336L49.4898 5.87336L51.3688 0Z" fill="#BDBEC2" fill-opacity="0.7"/>
<path d="M73.3688 0L75.2477 5.87336L81.3279 5.87336L76.4089 9.50329L78.2878 15.3766L73.3688 11.7467L68.4497 15.3766L70.3286 9.50329L65.4096 5.87336L71.4898 5.87336L73.3688 0Z" fill="#BDBEC2" fill-opacity="0.7"/>
<path d="M95.3688 0L97.2477 5.87336L103.328 5.87336L98.4089 9.50329L100.288 15.3766L95.3688 11.7467L90.4497 15.3766L92.3286 9.50329L87.4096 5.87336L93.4898 5.87336L95.3688 0Z" fill="#BDBEC2" fill-opacity="0.7"/>
<path d="M8.36875 0L10.2477 5.87336L16.3279 5.87336L11.4089 9.50329L13.2878 15.3766L8.36875 11.7467L3.44972 15.3766L5.32862 9.50329L0.409596 5.87336L6.48985 5.87336L8.36875 0Z" fill="#BDBEC2" fill-opacity="0.7"/>
<path d="M30.3688 0L32.2477 5.87336L38.3279 5.87336L33.4089 9.50329L35.2878 15.3766L30.3688 11.7467L25.4497 15.3766L27.3286 9.50329L22.4096 5.87336L28.4898 5.87336L30.3688 0Z" fill="#BDBEC2" fill-opacity="0.7"/>
</svg>
